<svg id="Слой_1" data-name="Слой 1" xmlns="http://www.w3.org/2000/svg" viewBox="0 0 110 70"><defs><style>.cls-1{fill:#929296;}.cls-1,.cls-2{fill-rule:evenodd;}.cls-2{fill:#ff0074;}</style></defs><title>Монтажная область 1</title><path class="cls-1" d="M80.32,50.24c-.08.07-.12.08-.46.16l-.17,0a16.55,16.55,0,0,1-3.12.19H76.3V51l1.8.57c0,.19,0,2.26,0,2.35-.38.49-.8,1.12-1.2,1.73s-.77,1.14-1.12,1.74l-.13.23h.63l.93-1.12.9-1.08c0,.71,0,7.08,0,7.08s-.07,3.85-.07,4.06l-2.16.54v.43l3.73,0,3.71.06v-.47L81,66.6v-.87c0-.4,0-.79,0-1.18,0-.84,0-1.69,0-2.56a9.58,9.58,0,0,0,1.56.84,5.46,5.46,0,0,0,1.93.44h.12a6.52,6.52,0,0,0,3.6-1,6.38,6.38,0,0,0,2.2-2.39,7.09,7.09,0,0,0,.78-3.12,6.45,6.45,0,0,0-.65-3.09,6.13,6.13,0,0,0-2.14-2.44,6.45,6.45,0,0,0-3.61-.94h-.3a4.94,4.94,0,0,0-1.93.48,7,7,0,0,0-1.58,1V50.62l-.58-.46Zm1.31,2.47a6.89,6.89,0,0,1,.86-.58,5.13,5.13,0,0,1,.78-.39l.19-.08a2.66,2.66,0,0,1,.87-.15h.17a3,3,0,0,1,1.88.77,4.69,4.69,0,0,1,1.22,2A7.52,7.52,0,0,1,88,56.8a7.64,7.64,0,0,1-.42,2.62,5,5,0,0,1-1.32,2,3.91,3.91,0,0,1-2.18.76,3.05,3.05,0,0,1-1.66-.42h0l-.15-.09L81,60.81V53.32A3.38,3.38,0,0,1,81.63,52.71Zm-56.4-2.42a6.31,6.31,0,0,0-2.84.75,6.22,6.22,0,0,0-2.45,2.3l-.36.7a5.74,5.74,0,0,0-.22.6l-1.47-.36-.22.4,1.52.74a9.06,9.06,0,0,0-.1,1.25,6.57,6.57,0,0,0,.28,1.94,7.08,7.08,0,0,0,1.41,2.46A7.57,7.57,0,0,0,23,62.61a7.73,7.73,0,0,0,2.26.53h.43a6.46,6.46,0,0,0,5-2.52l.11-.13-.48-.3-.08.08a7,7,0,0,1-1.66,1.24,4.65,4.65,0,0,1-2,.41h-.18a4.63,4.63,0,0,1-1-.16,4,4,0,0,1-.95-.38A3.93,3.93,0,0,1,23,60a6,6,0,0,1-.77-1.94A8.93,8.93,0,0,1,22,56.54c0-.13,0-.26,0-.38,1.2.21,2.87.3,2.88.3l.29,0h.65c.5,0,1,0,1.58-.08A6.72,6.72,0,0,0,29.2,56a3.82,3.82,0,0,0,1.43-.82,1.87,1.87,0,0,0,.62-1.47A2.86,2.86,0,0,0,30.7,52a3.87,3.87,0,0,0-1.38-1.05,5.79,5.79,0,0,0-1.83-.51A15.6,15.6,0,0,0,25.22,50.28Zm.23.92a3.34,3.34,0,0,1,1.41.07,2,2,0,0,1,1.05.66,1.58,1.58,0,0,1,.4,1.13A2.07,2.07,0,0,1,28,54.43a2.3,2.3,0,0,1-1,.68,4.48,4.48,0,0,1-1.43.23H23.95c-.26,0-1.31-.06-1.76-.1a4.9,4.9,0,0,1,.62-2.09A4.18,4.18,0,0,1,24,51.79a4,4,0,0,1,1.27-.55h0Zm26.89-.49h-3v.43l1.83.52V61.93L49,62.51v.44h.15c2.29-.06,4.51-.06,6.8,0h.15v-.43L54,61.93C54,60.27,54,53,54,52.28c0-.24,0-.49,0-.74l1,0,.47,0a6.12,6.12,0,0,1,2.09.25,2.33,2.33,0,0,1,1.3,1,4.68,4.68,0,0,1,.39,2.36v.16h.55L60,52.92c0-.65.13-1.28.22-2v-.32S53.64,50.75,52.34,50.72Zm22.53-.14c-.81.05-1.58.05-2.39.05s-1.58,0-2.38-.05h-.16V51l1.89.56c-.57,1.29-1.13,2.63-1.69,4.1-.42,1.15-.9,2.39-1.51,3.94l-2.89-8L67.65,51v-.44h-.16c-1.14.1-2.27.11-3.23.11s-2.16-.06-3.24-.11h-.16V51l1.73.59,2.23,5.71L67,63l0,.16c-.17.61-.68,2.47-1.64,3.1a.27.27,0,0,1-.25,0,.21.21,0,0,1-.11-.16,1.7,1.7,0,0,0-.17-.66,1.05,1.05,0,0,0-.64-.56,1.21,1.21,0,0,0-.85,0,1.36,1.36,0,0,0-.67.46,1.11,1.11,0,0,0-.26.89,2,2,0,0,0,2.14,1.67,2.43,2.43,0,0,0,1.73-.69A7.82,7.82,0,0,0,68.18,64l0-.07,5.05-12.31L74.94,51l.15-.45Zm-27,.2c-2.26.07-4.55.07-6.81,0H40.9v.45L43,51.8l0,1,0,2.78c-.14,0-1.48.08-2.86.08s-2.73-.08-3-.08c0-.27,0-2.78,0-2.78l0-1,2.05-.58v-.45H39.1c-2.26.07-4.55.07-6.81,0h-.15v.45l2.18.58V62l-2.18.6V63h.15c2.26-.07,4.55-.07,6.81,0h.15v-.43L37.2,62s0-1,0-1l0-4.07V56.6l.68,0h4.55l.67,0v.27l0,4.06s0,1,0,1l-2.06.6V63h.15c2.26-.07,4.55-.07,6.81,0H48v-.44L45.84,62V51.8L48,51.23v-.45Z"/><path class="cls-1" d="M8.33,42.25A4.79,4.79,0,0,1,6.2,43l-2.49.18.1.48,2.07.43c0,3,0,6,0,9q0,1,0,1.93c0,2.65,0,4.92-.12,7l-2.22.57V63h.12c1.79,0,3.65,0,5.85,0l1,0v-.36l-1-.33L8.77,62V56.87l.71.84.67.84c.57.71,1.21,1.43,1.83,2.12l.06.07c.65.74,1.32,1.42,2.13,2.21a18.06,18.06,0,0,0,2.27,1.95,16.47,16.47,0,0,0,2.43,1.38,6.81,6.81,0,0,0,2.52.5h.06a3.47,3.47,0,0,0,.83-.08,2.11,2.11,0,0,0,1.45-1,1.6,1.6,0,0,0,.25-.88,1,1,0,0,0-.28-.74,1.07,1.07,0,0,0-.72-.3,1.46,1.46,0,0,0-.72.17.82.82,0,0,0-.38.66v0l0,.27.1.42a.46.46,0,0,1,0,.3c0,.08-.15.09-.21.1a2.86,2.86,0,0,1-1.52-.64,13.74,13.74,0,0,1-1.94-1.61c-.72-.63-1.41-1.36-2.15-2.13l0,0C15.25,60.44,14.6,59.72,14,59l-.63-.77-1.11-1.39-.89-1.06-.31-.37.66-.76.38-.43c.44-.52.9-1,1.39-1.46l0,0a9.39,9.39,0,0,1,1.54-1.19,3.1,3.1,0,0,1,1.54-.45h.12v-.42l-.93,0-1.81,0-1.71,0-1,0v.38l1.84.55c-.79.9-1.51,1.68-2.2,2.37L9.48,55.55l-.71.76V49.39c0-1.07,0-2.18,0-3.27s.07-2.18.17-3.31v-.06l-.56-.56Z"/><path class="cls-2" d="M72.56,8c-.36-.44-.3-.37-.94-.49a11,11,0,0,0-2.77.24c-.8.2-1.19.54-1.41.47S68,6.35,71.08,4.3c.5-.32-.14-.41-.14-.41-.31,0-3.2,1.06-5.26,4.68s-5.9,15.52-7.09,18.21-3.4,8.34-8.2,10.87c-4.24,2.21-10.24,2.9-14.83.29s-6.41-5.13-7.79-8.22c-1-2.18-1.39.84-.9,2.43s2,10.3,10.92,12.09c4.68.95,11.08.55,16.48-6.34,4-5,7-12.39,9.06-18.74s2.34-5.46,2.34-5.46-.36,4.17.11,5.84a12.64,12.64,0,0,0,1.66,3.63,18.77,18.77,0,0,0-3.85,3.15c-1.34,1.54-2.51,3.58-2.36,3.8s4.08-1.67,6.54-.67a3.24,3.24,0,0,1,2,2.39c.14.74.56,2.73-3,5A47.35,47.35,0,0,1,58.5,41a102.44,102.44,0,0,1-13.17,3.34c-.46-.09,15.58.24,20,.22,8,0,7.47-.26,7.06-.78-.26-.21-.88-1.59-6-1.9-.89-.06-7.42.76-7.29.52S66,40.61,70.08,38c8-5.1,4.25-11.85-1.22-12C66.64,26,65,27.8,65,27.55c0-1.17,3.27-2.13,3.64-2.2s2.72.45,3.35,0,1.44-1.41.75-1.54S71,23.4,71,23.17s.86.1,1.29-1.19c.32-1,.06-.95-1-.53a1.84,1.84,0,0,0-.88.62A3.11,3.11,0,0,0,70.3,21c-.39-1.11-.57-.74-.64-.48a5,5,0,0,1-.29.77,7.36,7.36,0,0,1-.92-2.65c-.36-1.71-.94-6.67-.29-7s3.29-.6,3.84-1.35S72.94,8.45,72.56,8Z"/><path class="cls-2" d="M64.42,6c1.19,1.42.79,3.34,1,3.32s2-6.83-1.74-6.73C62.89,2.63,63.67,5.14,64.42,6Z"/><path class="cls-1" d="M105,50.66c-.81.05-1.58.05-2.39.05s-1.58,0-2.38-.05h-.16v.44l1.89.56c-.57,1.29-1.13,2.63-1.69,4.1-.42,1.15-.9,2.39-1.51,3.94l-2.89-8,1.91-.56v-.44h-.16c-1.14.1-2.27.11-3.23.11s-2.16-.06-3.24-.11H91v.43l1.73.59L95,57.39l2.22,5.7,0,.16c-.17.61-.68,2.47-1.64,3.1a.27.27,0,0,1-.25,0,.21.21,0,0,1-.11-.16,1.7,1.7,0,0,0-.17-.66,1.05,1.05,0,0,0-.64-.56,1.21,1.21,0,0,0-.85,0,1.36,1.36,0,0,0-.67.46,1.11,1.11,0,0,0-.26.89,2,2,0,0,0,2.14,1.67,2.43,2.43,0,0,0,1.73-.69,7.82,7.82,0,0,0,1.89-3.18l0-.07,5.05-12.31,1.68-.58.15-.45Z"/></svg>